name C:\Users\u0101727\Documents\MyRepositories\upper-imu-dc\Results\main_tracking\Case_58\kinematics.mot
datacolumns 10
datarows 28
range 6.25000000 6.52000000
endheader 
time	clav_prot	clav_elev	scapula_abduction	scapula_elevation	scapula_upward_rot	scapula_winging	plane_elv	shoulder_elv	axial_rot	
          6.25000000	        -43.12467152	          9.83275984	         -5.58561550	         -2.00726406	         73.40460613	        -12.65966036	         28.39494742	         86.89956751	          1.84319809	
          6.26000000	        -43.12115301	          9.81539449	         -5.46255164	         -2.00969856	         73.54579802	        -12.63970660	         28.62348118	         86.96494269	          1.76298363	
          6.27000000	        -43.11604077	          9.79824893	         -5.33812765	         -2.01183829	         73.68550145	        -12.61881287	         28.85381593	         87.02888976	          1.68501392	
          6.28000000	        -43.10944605	          9.78147337	         -5.21254947	         -2.01359290	         73.82373724	        -12.59708929	         29.08602759	         87.09153517	          1.60958290	
          6.29000000	        -43.10149594	          9.76520482	         -5.08604211	         -2.01488181	         73.96053042	        -12.57465178	         29.32012141	         87.15300074	          1.53693683	
          6.30000000	        -43.09233113	          9.74956602	         -4.95884464	         -2.01563458	         74.09591166	        -12.55162019	         29.55603071	         87.21340582	          1.46726888	
          6.31000000	        -43.08210369	          9.73466557	         -4.83120567	         -2.01579059	         74.22991867	        -12.52811676	         29.79361701	         87.27286963	          1.40071591	
          6.32000000	        -43.07097470	          9.72059854	         -4.70337931	         -2.01529841	         74.36259662	        -12.50426463	         30.03267062	         87.33151298	          1.33735651	
          6.33000000	        -43.05911186	          9.70744620	         -4.57562161	         -2.01411578	         74.49399776	        -12.48018629	         30.27291138	         87.38945919	          1.27720955	
          6.34000000	        -43.04668696	          9.69527450	         -4.44818680	         -2.01221051	         74.62418033	        -12.45600168	         30.51398987	         87.44683442	          1.22023235	
          6.35000000	        -43.03387321	          9.68413087	         -4.32132306	         -2.00956246	         74.75320738	        -12.43182582	         30.75548951	         87.50376753	          1.16631816	
          6.36000000	        -43.02084232	          9.67403999	         -4.19526759	         -2.00616634	         74.88114535	        -12.40776605	         30.99693007	         87.56038969	          1.11529347	
          6.37000000	        -43.00776135	          9.66499879	         -4.07024129	         -2.00203486	         75.00806253	        -12.38391903	         31.23777318	         87.61683366	          1.06691593	
          6.38000000	        -42.99478962	          9.65697172	         -3.94644368	         -1.99720186	         75.13402725	        -12.36036787	         31.47743072	         87.67323286	          1.02087481	
          6.39000000	        -42.98207589	          9.64988773	         -3.82404871	         -1.99172422	         75.25910629	        -12.33717990	         31.71527691	         87.72972076	          0.97679595	
          6.40000000	        -42.96975608	          9.64364104	         -3.70320234	         -1.98568132	         75.38336348	        -12.31440572	         31.95066402	         87.78643095	          0.93425315	
          6.41000000	        -42.95795173	          9.63809702	         -3.58402236	         -1.97917101	         75.50685866	        -12.29207998	         32.18294122	         87.84349781	          0.89278661	
          6.42000000	        -42.94676912	          9.63310306	         -3.46660086	         -1.97230232	         75.62964671	        -12.27022385	         32.41147433	         87.90105749	          0.85192729	
          6.43000000	        -42.93629921	          9.62850226	         -3.35100904	         -1.96518636	         75.75177591	        -12.24884874	         32.63566389	         87.95924826	          0.81122369	
          6.44000000	        -42.92661803	          9.62414635	         -3.23730344	         -1.95792784	         75.87328555	        -12.22796017	         32.85495930	         88.01820977	          0.77026682	
          6.45000000	        -42.91778742	          9.61990517	         -3.12553186	         -1.95061896	         75.99420293	        -12.20756103	         33.06886809	         88.07808103	          0.72870890	
          6.46000000	        -42.90985524	          9.61567156	         -3.01573709	         -1.94333640	         76.11454089	        -12.18765330	         33.27696087	         88.13899762	          0.68627321	
          6.47000000	        -42.90285489	          9.61136250	         -2.90795712	         -1.93614062	         76.23429647	        -12.16823826	         33.47887332	         88.20108843	          0.64275451	
          6.48000000	        -42.89680350	          9.60691793	         -2.80222163	         -1.92907655	         76.35345105	        -12.14931512	         33.67430663	         88.26447244	          0.59801130	
          6.49000000	        -42.89169924	          9.60229911	         -2.69854527	         -1.92217435	         76.47197229	        -12.13087883	         33.86302818	         88.32925580	          0.55195288	
          6.50000000	        -42.88751804	          9.59748737	         -2.59691887	         -1.91544975	         76.58981760	        -12.11291738	         34.04487346	         88.39552983	          0.50452412	
          6.51000000	        -42.88421024	          9.59248385	         -2.49730072	         -1.90890363	         76.70693777	        -12.09540927	         34.21974922	         88.46336862	          0.45569094	
          6.52000000	        -42.88169809	          9.58730985	         -2.39960908	         -1.90252127	         76.82328093	        -12.07832155	         34.38763612	         88.53282764	          0.40542769	
